<svg width="151" height="50" viewBox="0 0 151 50" fill="none" xmlns="http://www.w3.org/2000/svg">
<g clip-path="url(#clip0_207_195)">
<rect width="151" height="50" rx="8" fill="#473BF0"/>
<path d="M27.8265 22.608V23.526C27.8265 26.96 25.3955 29.238 21.9785 29.238C18.2555 29.238 15.6035 26.467 15.6035 23.067C15.6035 19.616 18.2895 16.862 21.8425 16.862C24.1035 16.862 26.0245 18.001 27.0275 19.633L25.0215 20.789C24.4775 19.837 23.2705 19.14 21.8255 19.14C19.5645 19.14 17.9325 20.806 17.9325 23.067C17.9325 25.277 19.5135 26.943 21.9955 26.943C23.8655 26.943 25.0555 26.042 25.4635 24.682H21.8595V22.608H27.8265ZM30.7461 25.651C31.0521 26.773 31.9871 27.249 33.1431 27.249C33.9931 27.249 34.6731 26.892 35.0471 26.399L36.8151 27.419C36.0161 28.575 34.7411 29.238 33.1091 29.238C30.2531 29.238 28.4511 27.283 28.4511 24.75C28.4511 22.217 30.2701 20.262 32.9391 20.262C35.4551 20.262 37.2401 22.251 37.2401 24.75C37.2401 25.073 37.2061 25.362 37.1551 25.651H30.7461ZM30.7121 23.951H35.0471C34.7751 22.727 33.8571 22.234 32.9391 22.234C31.7661 22.234 30.9671 22.863 30.7121 23.951ZM42.884 22.608H40.963V26.144C40.963 27.062 41.626 27.079 42.884 27.011V29C39.807 29.34 38.77 28.439 38.77 26.144V22.608H37.291V20.5H38.77V18.783L40.963 18.12V20.5H42.884V22.608ZM49.8361 22.914C49.8361 24.172 54.2221 23.39 54.2221 26.518C54.2221 28.354 52.6241 29.238 50.8051 29.238C49.1051 29.238 47.8471 28.524 47.2351 27.215L49.1391 26.144C49.3771 26.841 49.9551 27.249 50.8051 27.249C51.5021 27.249 51.9781 27.011 51.9781 26.518C51.9781 25.277 47.5921 25.957 47.5921 22.965C47.5921 21.231 49.0711 20.262 50.8221 20.262C52.1991 20.262 53.3891 20.891 54.0521 22.064L52.1821 23.084C51.9271 22.54 51.4511 22.217 50.8221 22.217C50.2781 22.217 49.8361 22.455 49.8361 22.914ZM59.7454 22.608H57.8244V26.144C57.8244 27.062 58.4874 27.079 59.7454 27.011V29C56.6684 29.34 55.6314 28.439 55.6314 26.144V22.608H54.1524V20.5H55.6314V18.783L57.8244 18.12V20.5H59.7454V22.608ZM66.9859 20.5H69.1789V29H66.9859V27.997C66.3739 28.762 65.4559 29.238 64.2149 29.238C61.9539 29.238 60.0839 27.283 60.0839 24.75C60.0839 22.217 61.9539 20.262 64.2149 20.262C65.4559 20.262 66.3739 20.738 66.9859 21.503V20.5ZM64.6229 27.147C65.9829 27.147 66.9859 26.178 66.9859 24.75C66.9859 23.322 65.9829 22.353 64.6229 22.353C63.2799 22.353 62.2769 23.322 62.2769 24.75C62.2769 26.178 63.2799 27.147 64.6229 27.147ZM72.8606 21.962C73.3026 20.806 74.3736 20.33 75.4446 20.33V22.778C74.3056 22.642 72.8606 23.152 72.8606 24.937V29H70.6676V20.5H72.8606V21.962ZM81.3215 22.608H79.4005V26.144C79.4005 27.062 80.0635 27.079 81.3215 27.011V29C78.2445 29.34 77.2075 28.439 77.2075 26.144V22.608H75.7285V20.5H77.2075V18.783L79.4005 18.12V20.5H81.3215V22.608ZM83.9551 25.651C84.2611 26.773 85.1961 27.249 86.3521 27.249C87.2021 27.249 87.8821 26.892 88.2561 26.399L90.0241 27.419C89.2251 28.575 87.9501 29.238 86.3181 29.238C83.4621 29.238 81.6601 27.283 81.6601 24.75C81.6601 22.217 83.4791 20.262 86.1481 20.262C88.6641 20.262 90.4491 22.251 90.4491 24.75C90.4491 25.073 90.4151 25.362 90.3641 25.651H83.9551ZM83.9211 23.951H88.2561C87.9841 22.727 87.0661 22.234 86.1481 22.234C84.9751 22.234 84.1761 22.863 83.9211 23.951ZM97.8566 17.1H100.05V29H97.8566V27.997C97.2446 28.779 96.3436 29.238 95.1026 29.238C92.8246 29.238 90.9546 27.283 90.9546 24.75C90.9546 22.217 92.8246 20.262 95.1026 20.262C96.3436 20.262 97.2446 20.721 97.8566 21.503V17.1ZM95.5106 27.147C96.8536 27.147 97.8566 26.178 97.8566 24.75C97.8566 23.322 96.8536 22.353 95.5106 22.353C94.1506 22.353 93.1476 23.322 93.1476 24.75C93.1476 26.178 94.1506 27.147 95.5106 27.147ZM110.031 20.262C111.833 20.262 113.244 21.52 113.244 23.781V29H111.051V24.053C111.051 22.897 110.354 22.302 109.368 22.302C108.297 22.302 107.498 22.931 107.498 24.41V29H105.305V20.5H107.498V21.452C108.008 20.687 108.892 20.262 110.031 20.262ZM118.663 29.238C116.164 29.238 114.175 27.283 114.175 24.75C114.175 22.217 116.164 20.262 118.663 20.262C121.162 20.262 123.168 22.217 123.168 24.75C123.168 27.283 121.162 29.238 118.663 29.238ZM118.663 27.096C119.972 27.096 120.975 26.127 120.975 24.75C120.975 23.373 119.972 22.404 118.663 22.404C117.371 22.404 116.368 23.373 116.368 24.75C116.368 26.127 117.371 27.096 118.663 27.096ZM133.449 20.5H135.778L133.075 29H130.984L129.42 23.849L127.856 29H125.765L123.062 20.5H125.391L126.836 25.719L128.383 20.5H130.457L132.004 25.736L133.449 20.5Z" fill="white"/>
</g>
<defs>
<clipPath id="clip0_207_195">
<rect width="151" height="50" fill="white"/>
</clipPath>
</defs>
</svg>
