<svg width="218" height="59" viewBox="0 0 218 59" fill="none" xmlns="http://www.w3.org/2000/svg">
<g clip-path="url(#clip0_1_560)">
<rect width="218" height="59" rx="8" fill="#473BF0"/>
<path d="M33.784 28.608V29.526C33.784 32.96 31.353 35.238 27.936 35.238C24.213 35.238 21.561 32.467 21.561 29.067C21.561 25.616 24.247 22.862 27.8 22.862C30.061 22.862 31.982 24.001 32.985 25.633L30.979 26.789C30.435 25.837 29.228 25.14 27.783 25.14C25.522 25.14 23.89 26.806 23.89 29.067C23.89 31.277 25.471 32.943 27.953 32.943C29.823 32.943 31.013 32.042 31.421 30.682H27.817V28.608H33.784ZM36.6037 31.651C36.9097 32.773 37.8447 33.249 39.0007 33.249C39.8507 33.249 40.5307 32.892 40.9047 32.399L42.6727 33.419C41.8737 34.575 40.5987 35.238 38.9667 35.238C36.1107 35.238 34.3087 33.283 34.3087 30.75C34.3087 28.217 36.1277 26.262 38.7967 26.262C41.3127 26.262 43.0977 28.251 43.0977 30.75C43.0977 31.073 43.0637 31.362 43.0127 31.651H36.6037ZM36.5697 29.951H40.9047C40.6327 28.727 39.7147 28.234 38.7967 28.234C37.6237 28.234 36.8247 28.863 36.5697 29.951ZM48.6416 28.608H46.7206V32.144C46.7206 33.062 47.3836 33.079 48.6416 33.011V35C45.5646 35.34 44.5276 34.439 44.5276 32.144V28.608H43.0486V26.5H44.5276V24.783L46.7206 24.12V26.5H48.6416V28.608ZM55.3936 28.914C55.3936 30.172 59.7796 29.39 59.7796 32.518C59.7796 34.354 58.1816 35.238 56.3626 35.238C54.6626 35.238 53.4046 34.524 52.7926 33.215L54.6966 32.144C54.9346 32.841 55.5126 33.249 56.3626 33.249C57.0596 33.249 57.5356 33.011 57.5356 32.518C57.5356 31.277 53.1496 31.957 53.1496 28.965C53.1496 27.231 54.6286 26.262 56.3796 26.262C57.7566 26.262 58.9466 26.891 59.6096 28.064L57.7396 29.084C57.4846 28.54 57.0086 28.217 56.3796 28.217C55.8356 28.217 55.3936 28.455 55.3936 28.914ZM65.2029 28.608H63.2819V32.144C63.2819 33.062 63.9449 33.079 65.2029 33.011V35C62.1259 35.34 61.0889 34.439 61.0889 32.144V28.608H59.6099V26.5H61.0889V24.783L63.2819 24.12V26.5H65.2029V28.608ZM72.3435 26.5H74.5365V35H72.3435V33.997C71.7315 34.762 70.8135 35.238 69.5725 35.238C67.3115 35.238 65.4415 33.283 65.4415 30.75C65.4415 28.217 67.3115 26.262 69.5725 26.262C70.8135 26.262 71.7315 26.738 72.3435 27.503V26.5ZM69.9805 33.147C71.3405 33.147 72.3435 32.178 72.3435 30.75C72.3435 29.322 71.3405 28.353 69.9805 28.353C68.6375 28.353 67.6345 29.322 67.6345 30.75C67.6345 32.178 68.6375 33.147 69.9805 33.147ZM78.1181 27.962C78.5601 26.806 79.6311 26.33 80.7021 26.33V28.778C79.5631 28.642 78.1181 29.152 78.1181 30.937V35H75.9251V26.5H78.1181V27.962ZM86.4791 28.608H84.5581V32.144C84.5581 33.062 85.2211 33.079 86.4791 33.011V35C83.4021 35.34 82.3651 34.439 82.3651 32.144V28.608H80.8861V26.5H82.3651V24.783L84.5581 24.12V26.5H86.4791V28.608ZM89.0126 31.651C89.3186 32.773 90.2536 33.249 91.4096 33.249C92.2596 33.249 92.9396 32.892 93.3136 32.399L95.0816 33.419C94.2826 34.575 93.0076 35.238 91.3756 35.238C88.5196 35.238 86.7176 33.283 86.7176 30.75C86.7176 28.217 88.5366 26.262 91.2056 26.262C93.7216 26.262 95.5066 28.251 95.5066 30.75C95.5066 31.073 95.4726 31.362 95.4216 31.651H89.0126ZM88.9786 29.951H93.3136C93.0416 28.727 92.1236 28.234 91.2056 28.234C90.0326 28.234 89.2336 28.863 88.9786 29.951ZM102.814 23.1H105.007V35H102.814V33.997C102.202 34.779 101.301 35.238 100.06 35.238C97.7822 35.238 95.9122 33.283 95.9122 30.75C95.9122 28.217 97.7822 26.262 100.06 26.262C101.301 26.262 102.202 26.721 102.814 27.503V23.1ZM100.468 33.147C101.811 33.147 102.814 32.178 102.814 30.75C102.814 29.322 101.811 28.353 100.468 28.353C99.1082 28.353 98.1052 29.322 98.1052 30.75C98.1052 32.178 99.1082 33.147 100.468 33.147ZM114.789 26.262C116.591 26.262 118.002 27.52 118.002 29.781V35H115.809V30.053C115.809 28.897 115.112 28.302 114.126 28.302C113.055 28.302 112.256 28.931 112.256 30.41V35H110.063V26.5H112.256V27.452C112.766 26.687 113.65 26.262 114.789 26.262ZM123.32 35.238C120.821 35.238 118.832 33.283 118.832 30.75C118.832 28.217 120.821 26.262 123.32 26.262C125.819 26.262 127.825 28.217 127.825 30.75C127.825 33.283 125.819 35.238 123.32 35.238ZM123.32 33.096C124.629 33.096 125.632 32.127 125.632 30.75C125.632 29.373 124.629 28.404 123.32 28.404C122.028 28.404 121.025 29.373 121.025 30.75C121.025 32.127 122.028 33.096 123.32 33.096ZM138.007 26.5H140.336L137.633 35H135.542L133.978 29.849L132.414 35H130.323L127.62 26.5H129.949L131.394 31.719L132.941 26.5H135.015L136.562 31.736L138.007 26.5Z" fill="white"/>
<path d="M191.933 24L198 29.6333L191.933 35.2667" stroke="white" stroke-width="2" stroke-linecap="square" stroke-linejoin="bevel"/>
<path d="M185 29.4012H197.133" stroke="white" stroke-width="2" stroke-linecap="square" stroke-linejoin="bevel"/>
</g>
<defs>
<clipPath id="clip0_1_560">
<rect width="218" height="59" fill="white"/>
</clipPath>
</defs>
</svg>
