<svg width="170" height="59" viewBox="0 0 170 59" fill="none" xmlns="http://www.w3.org/2000/svg">
<g clip-path="url(#clip0_355_176)">
<rect width="170" height="59" rx="8" fill="#473BF0"/>
<path d="M26.168 35.238C23.737 35.238 22.139 34.065 21.493 32.297L23.499 31.124C23.924 32.229 24.757 32.943 26.236 32.943C27.647 32.943 28.14 32.348 28.14 31.685C28.14 30.801 27.341 30.461 25.573 29.951C23.754 29.424 21.986 28.659 21.986 26.398C21.986 24.154 23.856 22.862 25.896 22.862C27.851 22.862 29.347 23.865 30.146 25.531L28.174 26.67C27.749 25.769 27.103 25.14 25.896 25.14C24.91 25.14 24.332 25.65 24.332 26.33C24.332 27.061 24.791 27.452 26.593 27.996C28.48 28.591 30.486 29.22 30.486 31.651C30.486 33.878 28.701 35.238 26.168 35.238ZM36.9241 26.5H39.1171V35H36.9241V34.048C36.4141 34.813 35.5301 35.238 34.3911 35.238C32.5891 35.238 31.1781 33.98 31.1781 31.719V26.5H33.3711V31.447C33.3711 32.603 34.0681 33.198 35.0541 33.198C36.1251 33.198 36.9241 32.569 36.9241 31.09V26.5ZM45.4727 26.262C47.7507 26.262 49.6207 28.217 49.6207 30.75C49.6207 33.283 47.7507 35.238 45.4727 35.238C44.2317 35.238 43.3307 34.779 42.7187 33.997V35H40.5257V23.1H42.7187V27.503C43.3307 26.721 44.2317 26.262 45.4727 26.262ZM45.0647 33.147C46.4247 33.147 47.4277 32.178 47.4277 30.75C47.4277 29.322 46.4247 28.353 45.0647 28.353C43.7217 28.353 42.7187 29.322 42.7187 30.75C42.7187 32.178 43.7217 33.147 45.0647 33.147ZM52.4076 28.914C52.4076 30.172 56.7936 29.39 56.7936 32.518C56.7936 34.354 55.1956 35.238 53.3766 35.238C51.6766 35.238 50.4186 34.524 49.8066 33.215L51.7106 32.144C51.9486 32.841 52.5266 33.249 53.3766 33.249C54.0736 33.249 54.5496 33.011 54.5496 32.518C54.5496 31.277 50.1636 31.957 50.1636 28.965C50.1636 27.231 51.6426 26.262 53.3936 26.262C54.7706 26.262 55.9606 26.891 56.6236 28.064L54.7536 29.084C54.4986 28.54 54.0226 28.217 53.3936 28.217C52.8496 28.217 52.4076 28.455 52.4076 28.914ZM61.5338 35.238C58.9498 35.238 57.0458 33.283 57.0458 30.75C57.0458 28.217 58.9498 26.262 61.5338 26.262C63.1998 26.262 64.6448 27.146 65.3418 28.455L63.4548 29.56C63.1148 28.863 62.3838 28.421 61.5168 28.421C60.2078 28.421 59.2388 29.39 59.2388 30.75C59.2388 32.093 60.2078 33.062 61.5168 33.062C62.4008 33.062 63.1318 32.637 63.4718 31.94L65.3758 33.028C64.6448 34.354 63.1998 35.238 61.5338 35.238ZM68.195 27.962C68.637 26.806 69.708 26.33 70.779 26.33V28.778C69.64 28.642 68.195 29.152 68.195 30.937V35H66.002V26.5H68.195V27.962ZM72.5496 25.48C71.8186 25.48 71.2066 24.868 71.2066 24.137C71.2066 23.406 71.8186 22.777 72.5496 22.777C73.2976 22.777 73.9096 23.406 73.9096 24.137C73.9096 24.868 73.2976 25.48 72.5496 25.48ZM71.4616 35V26.5H73.6546V35H71.4616ZM80.0088 26.262C82.2868 26.262 84.1568 28.217 84.1568 30.75C84.1568 33.283 82.2868 35.238 80.0088 35.238C78.7678 35.238 77.8668 34.779 77.2548 33.997V35H75.0618V23.1H77.2548V27.503C77.8668 26.721 78.7678 26.262 80.0088 26.262ZM79.6008 33.147C80.9608 33.147 81.9638 32.178 81.9638 30.75C81.9638 29.322 80.9608 28.353 79.6008 28.353C78.2578 28.353 77.2548 29.322 77.2548 30.75C77.2548 32.178 78.2578 33.147 79.6008 33.147ZM86.9564 31.651C87.2624 32.773 88.1974 33.249 89.3534 33.249C90.2034 33.249 90.8834 32.892 91.2574 32.399L93.0254 33.419C92.2264 34.575 90.9514 35.238 89.3194 35.238C86.4634 35.238 84.6614 33.283 84.6614 30.75C84.6614 28.217 86.4804 26.262 89.1494 26.262C91.6654 26.262 93.4504 28.251 93.4504 30.75C93.4504 31.073 93.4164 31.362 93.3654 31.651H86.9564ZM86.9224 29.951H91.2574C90.9854 28.727 90.0674 28.234 89.1494 28.234C87.9764 28.234 87.1774 28.863 86.9224 29.951Z" fill="white"/>
<path d="M143.933 24L150 29.6333L143.933 35.2667" stroke="white" stroke-width="2" stroke-linecap="square" stroke-linejoin="bevel"/>
<path d="M137 29.4011H149.133" stroke="white" stroke-width="2" stroke-linecap="square" stroke-linejoin="bevel"/>
</g>
<defs>
<clipPath id="clip0_355_176">
<rect width="170" height="59" fill="white"/>
</clipPath>
</defs>
</svg>
